<svg width="731" height="874" viewBox="0 0 731 874" fill="none" xmlns="http://www.w3.org/2000/svg">
<path d="M704.702 486.963L641.405 408.148C641.405 408.148 692.042 235.037 433.23 159.037C433.23 159.037 405.098 74.5926 443.076 0C443.076 0 316.483 14.0741 208.175 128.074C208.175 128.074 123.78 187.185 73.1427 282.889C50.6372 306.815 11.2527 354.667 0 410.963C0 410.963 18.2857 377.185 46.4175 351.852C30.945 412.37 8.43954 532 53.4504 624.889L85.802 543.259C85.802 543.259 56.2636 752.963 286.944 845.852L234.901 719.185C305.23 790.963 443.076 874 582.328 874C582.328 874 421.977 691.037 478.241 641.778C478.241 641.778 658.284 653.037 696.262 557.333C696.262 557.333 715.954 555.926 725.801 537.63C734.24 519.333 735.647 501.037 704.702 486.963ZM402.285 163.259C389.626 168.889 336.175 188.593 302.417 159.037C302.417 159.037 306.637 68.963 403.691 33.7778C383.999 91.4815 396.658 147.778 402.285 163.259ZM490.9 289.926C607.647 305.407 607.647 410.963 607.647 410.963C431.823 470.074 409.318 278.667 490.9 289.926Z" fill="#22232B"/>
</svg>
