<svg width="90" height="146" viewBox="0 0 90 146" fill="none" xmlns="http://www.w3.org/2000/svg">
<path d="M86.7622 59.6167L78.9692 49.9678C78.9692 49.9678 85.2036 28.7746 53.3388 19.4702C53.3388 19.4702 49.8753 9.13205 54.5511 0C54.5511 0 38.965 1.72303 25.6303 15.6796C25.6303 15.6796 15.2397 22.9163 9.00526 34.6329C6.23441 37.562 1.38542 43.4203 0 50.3124C0 50.3124 2.25131 46.1771 5.71487 43.0757C3.80992 50.4847 1.03907 65.1304 6.58076 76.5024L10.5639 66.5089C10.5639 66.5089 6.92712 92.182 35.3283 103.554L28.9207 88.0467C37.5796 96.8341 54.5511 107 71.6957 107C71.6957 107 51.9534 84.6006 58.8805 78.5701C58.8805 78.5701 81.0473 79.9485 85.7231 68.2319C85.7231 68.2319 88.1476 68.0596 89.3598 65.8196C90.3989 63.5797 90.5721 61.3398 86.7622 59.6167ZM49.5289 19.9871C47.9703 20.6763 41.3895 23.0886 37.2333 19.4702C37.2333 19.4702 37.7528 8.44283 49.7021 4.13527C47.2776 11.1997 48.8362 18.0918 49.5289 19.9871ZM60.4391 35.4944C74.8129 37.3897 74.8129 50.3124 74.8129 50.3124C53.1656 57.5491 50.3948 34.1159 60.4391 35.4944Z" fill="url(#paint0_linear_38_31)"/>
<path d="M52 143.413C50.5625 144.85 48.3125 145.6 45.3125 145.6C42.125 145.6 39.875 144.85 38.4375 143.413C37 141.975 36.25 139.788 36.25 136.913C36.25 134.038 37 131.85 38.4375 130.413C39.875 128.975 42.1875 128.225 45.3125 128.225C48.3125 128.225 50.5625 128.975 52 130.413C53.4375 131.85 54.1875 134.038 54.1875 136.913C54.1875 139.788 53.4375 141.975 52 143.413ZM49.25 133.725C48.4375 133.038 47.125 132.725 45.3125 132.725C43.375 132.725 42 133.038 41.1875 133.725C40.375 134.413 40 135.475 40 136.975C40 138.475 40.375 139.538 41.1875 140.225C42 140.913 43.375 141.225 45.3125 141.225C47.125 141.225 48.4375 140.913 49.25 140.225C50.0625 139.538 50.5 138.475 50.5 136.975C50.5 135.475 50.0625 134.413 49.25 133.725Z" fill="white"/>
<path d="M41.125 126.038L41.125 121.975L42.25 121.85C41.3125 120.538 40.8125 119.1 40.8125 117.6C40.8125 116.788 40.9375 116.1 41.1875 115.6C41.4375 115.1 41.8125 114.725 42.3125 114.413C41.8125 113.788 41.5 113.038 41.1875 112.288C40.9375 111.538 40.8125 110.663 40.8125 109.725C40.8125 108.225 41.1875 107.163 42 106.413C42.75 105.725 43.9375 105.35 45.5625 105.35L53.9375 105.35L53.9375 109.663L46.0625 109.663C45.375 109.663 44.875 109.788 44.5625 110.1C44.25 110.413 44.0625 110.85 44.0625 111.538C44.0625 111.975 44.125 112.35 44.3125 112.788C44.5 113.163 44.75 113.475 45 113.788C45.25 113.725 45.6875 113.725 46.1875 113.725L53.9375 113.725L53.9375 117.788L46 117.788C45.3125 117.788 44.8125 117.913 44.5 118.163C44.1875 118.413 44.0625 118.85 44.0625 119.413C44.0625 120.163 44.4375 120.975 45.25 121.788L53.9375 121.788L53.9375 126.038L41.125 126.038Z" fill="white"/>
<path d="M47.5 103.725C45.3125 103.725 43.6875 103.1 42.5625 101.913C41.4375 100.725 40.875 98.9126 40.875 96.4751C40.875 94.0376 41.4375 92.2251 42.5625 91.0376C43.6875 89.8501 45.375 89.2251 47.5625 89.2251C52 89.2251 54.25 91.6626 54.25 96.4751C54.1875 101.35 52 103.725 47.5 103.725ZM50 94.3501C49.5 93.9126 48.6875 93.7251 47.5 93.7251C46.3125 93.7251 45.5 93.9751 45 94.4126C44.5 94.8501 44.25 95.6001 44.25 96.5376C44.25 97.5376 44.5 98.2251 45 98.6626C45.5 99.1001 46.375 99.2876 47.5 99.2876C48.6875 99.2876 49.5 99.1001 50 98.6626C50.5 98.2251 50.75 97.5376 50.75 96.5376C50.8125 95.5376 50.5625 94.7876 50 94.3501Z" fill="white"/>
<path d="M53 86.2251C52.1875 86.9751 51.0625 87.3501 49.625 87.3501L44.375 87.3501L44.375 89.1001L41.0625 89.1001L41.0625 87.3501L38.375 87.3501L37.1875 82.9751L41 82.9751L41 79.8501L44.3125 80.0376L44.3125 82.9751L49.25 82.9751C49.875 82.9751 50.3125 82.8501 50.5625 82.5376C50.8125 82.2251 50.9375 81.7876 50.9375 81.1001C50.9375 80.6001 50.875 80.0376 50.6875 79.4751L53.625 79.4751C54 80.3501 54.1875 81.3501 54.1875 82.6626C54.1875 84.2876 53.8125 85.4126 53 86.2251Z" fill="white"/>
<path d="M52.9375 77.4126C52.0625 78.2251 50.8125 78.6626 49.1875 78.6626L41.125 78.6626L41.125 74.2876L48.9375 74.2876C49.6875 74.2876 50.1875 74.1001 50.5 73.7876C50.8125 73.4751 51 72.9126 51 72.1626C51 71.6626 50.875 71.1626 50.6875 70.7251C50.5 70.2251 50.1875 69.8501 49.875 69.5376L41.125 69.5376L41.125 65.1626L53.9375 65.1626L53.9375 69.2876L52.875 69.4126C53.75 70.6001 54.25 72.1001 54.25 73.8501C54.1875 75.4126 53.75 76.6001 52.9375 77.4126Z" fill="white"/>
<path d="M41.125 62.4751L41.125 58.4126L42.25 58.2876C41.875 57.7251 41.5 57.0376 41.25 56.2251C41 55.4126 40.875 54.6001 40.875 53.7251C40.875 52.1001 41.25 50.8501 42.0625 50.1001C42.875 49.3501 44.0625 48.9751 45.75 48.9751L53.9375 48.9751L53.9375 53.3501L46.0625 53.3501C45.3125 53.3501 44.8125 53.5376 44.5 53.8501C44.1875 54.1626 44.0625 54.7251 44.0625 55.4751C44.0625 55.9751 44.1875 56.4126 44.375 56.9126C44.5625 57.4126 44.875 57.7876 45.1875 58.1001L53.9375 58.1001L53.9375 62.4751L41.125 62.4751Z" fill="white"/>
<defs>
<linearGradient id="paint0_linear_38_31" x1="18.9635" y1="16.92" x2="70.9531" y2="107.426" gradientUnits="userSpaceOnUse">
<stop stop-color="#F71D0A"/>
<stop offset="1" stop-color="#F00B5D"/>
</linearGradient>
</defs>
</svg>
