<svg width="243" height="49" viewBox="0 0 243 49" fill="none" xmlns="http://www.w3.org/2000/svg">
<path d="M4.7753 18.9083C4.92001 18.7636 5.11295 18.7153 5.30589 18.7153C5.49883 18.7153 5.64354 18.7636 5.74001 18.9083C5.83648 19.053 5.88471 19.1977 5.83648 19.3906C5.78824 19.5836 5.69177 19.7283 5.54706 19.873C5.54706 19.873 5.49883 19.873 5.49883 19.9212L5.45059 19.9695C5.45059 19.9695 5.40236 19.9695 5.40236 20.0177C5.35412 20.0659 5.30589 20.1142 5.20942 20.1624C5.11295 20.2106 4.96824 20.3553 4.7753 20.5C4.58236 20.6447 4.38942 20.8377 4.14824 21.0789C3.90706 21.32 3.61765 21.6095 3.28 21.9471L3.23177 21.9953C3.08706 22.1883 2.89412 22.3812 2.70118 22.5742C2.50824 22.8153 2.3153 23.0565 2.17059 23.2977C1.97765 23.5871 1.78471 23.8765 1.59177 24.2142C1.39882 24.5518 1.20588 24.9377 1.06118 25.3718V25.42V25.4683C1.06118 25.5165 1.01294 25.5165 1.01294 25.5648C1.01294 25.613 0.964707 25.613 0.964707 25.613C0.964707 25.613 1.01294 25.613 1.10941 25.5648C1.15765 25.5648 1.20588 25.5165 1.25412 25.5165C1.30235 25.5165 1.35059 25.4683 1.39882 25.4683C1.64 25.3718 1.88118 25.2271 2.12236 25.0824C2.36353 24.9377 2.65294 24.7448 2.94236 24.6C3.23177 24.4553 3.52118 24.2142 3.81059 24.0212C4.1 23.8283 4.38942 23.6353 4.72706 23.3942C4.7753 23.3459 4.87177 23.2977 4.96824 23.2495C5.06471 23.2012 5.11295 23.153 5.20942 23.1047L5.45059 22.9118L5.49883 22.8636C5.49883 22.8636 5.54706 22.8636 5.54706 22.8153L5.69177 22.7671H6.22236L6.36707 22.8636C6.4153 22.9118 6.51177 22.96 6.60824 23.0083C6.70471 23.0565 6.75295 23.1047 6.84942 23.153H6.94589C6.94589 23.153 6.94589 23.153 6.89765 23.153C6.89765 23.153 6.89765 23.153 6.84942 23.153C6.99412 23.2495 7.18707 23.3459 7.33177 23.4424C7.86236 23.7318 8.24824 23.973 8.58589 24.1177C8.92354 24.2624 9.21295 24.4071 9.45413 24.5036C9.6953 24.6 9.98472 24.6965 10.2259 24.793C10.4671 24.8895 10.7565 24.9859 11.0459 25.0824C11.2871 25.1306 11.6247 25.2271 11.9624 25.3236C12.3 25.42 12.6859 25.4683 13.1683 25.5165C13.2647 25.5165 13.3612 25.5165 13.4577 25.5165C13.5541 25.5165 13.6988 25.5165 13.7953 25.5165C13.94 25.5165 14.0847 25.5165 14.2777 25.5165C14.4706 25.5165 14.6153 25.4683 14.8083 25.4683C15.0977 25.42 15.4353 25.3718 15.773 25.2271C16.1106 25.1306 16.4965 24.9859 16.8824 24.793C17.7024 24.4071 18.3777 24.0212 19.0047 23.6353C19.6318 23.2495 20.1624 22.8636 20.6447 22.5259C21.1271 22.1883 21.5612 21.8506 21.9471 21.5612C22.333 21.2718 22.6224 20.9824 22.9118 20.7412C23.3459 20.3553 23.6353 20.0659 23.8765 19.8247C24.1177 19.5836 24.3106 19.3906 24.4071 19.2942L24.5036 19.1977C24.6483 19.053 24.793 18.9565 24.9859 18.9565C25.1789 18.9083 25.3236 18.9565 25.4683 19.1012C25.613 19.2459 25.6612 19.3906 25.613 19.5836C25.613 19.7765 25.5165 19.9695 25.3236 20.1142C25.2753 20.1624 25.2271 20.1624 25.2271 20.2106C25.1789 20.2589 25.1306 20.3071 25.0341 20.4036C24.9377 20.5 24.8412 20.5965 24.6483 20.693C24.5036 20.8377 24.3106 20.9824 24.0212 21.1753C23.78 21.3683 23.4906 21.6095 23.1047 21.8989C22.7188 22.1883 22.2847 22.5259 21.7059 22.9118C21.4647 23.1047 21.1753 23.2977 20.8377 23.4906C20.5 23.6836 20.1624 23.9247 19.7765 24.1659C19.3906 24.4071 18.9565 24.6483 18.5224 24.8412C18.0883 25.0824 17.6541 25.2753 17.1718 25.5165C16.7377 25.7095 16.2553 25.9024 15.773 25.9989C15.2906 26.0953 14.9047 26.1918 14.5188 26.24C14.2294 26.2883 13.9883 26.2883 13.6988 26.2883C13.5059 26.2883 13.2647 26.2883 13.0718 26.2883C12.8788 26.2883 12.6859 26.24 12.493 26.24C11.9624 26.1918 11.48 26.0953 11.0459 25.9989C10.6118 25.9024 10.2259 25.8059 9.88825 25.7095C9.5506 25.613 9.21295 25.5165 8.92354 25.42C8.63413 25.3236 8.29648 25.1789 7.9106 25.0342C7.71766 24.9377 7.52471 24.8895 7.33177 24.793C7.13883 24.6965 6.94589 24.6 6.70471 24.4553C6.60824 24.4071 6.46354 24.3106 6.36707 24.2624C6.27059 24.2142 6.12589 24.1177 5.98118 24.0695L5.64354 23.8765C4.92 24.3106 4.34118 24.6965 3.81059 24.9859C3.28 25.2753 2.79765 25.5648 2.36353 25.7577C2.17059 25.8542 1.97765 25.9506 1.73647 26.0471C1.54353 26.1436 1.30235 26.24 1.06118 26.2883C0.916472 26.3365 0.771765 26.3365 0.578824 26.3365C0.530589 26.3365 0.482353 26.3365 0.434118 26.2883C0.385883 26.2883 0.337647 26.24 0.289412 26.1918C0.0964704 26.0953 0 25.9989 0 25.8059C0 25.7095 0 25.6612 0 25.5648C0 25.4683 -2.76724e-07 25.42 0.0482351 25.3236V25.2753C0.0482351 25.2271 0.0482353 25.1789 0.0964706 25.0824C0.0964706 25.0342 0.144706 24.9377 0.144706 24.8895C0.289412 24.4553 0.434118 24.1177 0.578824 23.78C0.771765 23.4424 0.916471 23.153 1.10941 22.8636C1.30235 22.5742 1.44706 22.333 1.64 22.14C1.78471 21.9471 1.97765 21.7542 2.07412 21.5612C2.3153 21.2236 2.55647 20.9342 2.79765 20.693C2.99059 20.4518 3.18353 20.2589 3.32824 20.1142L3.42471 20.0177C3.47295 19.9695 3.52118 19.9212 3.56942 19.873C3.61765 19.8247 3.66589 19.7765 3.71412 19.7283C3.81059 19.6318 3.90706 19.5353 3.9553 19.4389C4.05177 19.3424 4.1 19.2942 4.14824 19.2459C4.19648 19.1977 4.29295 19.1012 4.34118 19.053C4.63059 19.053 4.72706 19.0047 4.7753 18.9083Z" fill="#32333E"/>
<path d="M45.679 18.9565C45.7755 19.1012 45.7273 19.2941 45.5826 19.5353C45.4379 19.7765 45.1967 19.9694 44.859 20.1624C44.8108 20.2106 44.7143 20.2106 44.6661 20.2588C44.6178 20.3071 44.5214 20.3553 44.3767 20.4035C44.3284 20.4035 44.2802 20.4518 44.232 20.4518C44.1837 20.4518 44.1355 20.5 44.0873 20.5483C43.8943 20.6447 43.6049 20.7894 43.219 20.9341C42.8814 21.0788 42.399 21.32 41.8202 21.5612C41.2414 21.8024 40.5178 22.0918 39.6496 22.4294C38.7814 22.7671 37.7684 23.153 36.5625 23.5871C35.9837 23.78 35.3084 24.0212 34.5849 24.2624C33.8614 24.5036 33.0896 24.7447 32.3178 24.9377C31.932 25.0341 31.4978 25.1788 31.0637 25.2753C30.6296 25.3718 30.1955 25.5165 29.7131 25.613C29.2308 25.7094 28.7002 25.8541 28.2178 25.9506C27.6872 26.0953 27.2049 26.1918 26.7225 26.24C26.5778 26.24 26.4814 26.2883 26.3367 26.2883C26.1919 26.2883 26.0955 26.3365 25.9508 26.3365C25.9025 26.3365 25.8543 26.3365 25.8543 26.3365C25.8061 26.3365 25.7578 26.3365 25.7578 26.3365H25.5649H25.5167H25.4684C25.4202 26.3365 25.3719 26.3365 25.3237 26.3365C25.2755 26.3365 25.2272 26.3365 25.1308 26.2883C24.9378 26.1436 24.8414 26.0471 24.7449 25.9506C24.6484 25.8541 24.6002 25.7094 24.5519 25.613C24.5037 25.5165 24.4555 25.3718 24.4555 25.2753C24.4072 25.1788 24.4072 25.0341 24.359 24.9377C24.359 24.793 24.3108 24.6483 24.3108 24.5036C24.3108 24.3588 24.3108 24.2141 24.3108 24.0694C24.3108 23.78 24.3108 23.4906 24.359 23.2012C24.4072 22.9118 24.4072 22.6706 24.4555 22.4294C24.5037 22.1883 24.5037 21.9471 24.5519 21.7541C24.6002 21.5612 24.6002 21.3683 24.6484 21.2236C24.6967 21.0306 24.6967 20.8859 24.7449 20.7412C24.7931 20.5965 24.8414 20.4036 24.8896 20.2106C24.6967 20.2588 24.5519 20.2588 24.4555 20.2106C24.3108 20.1624 24.2143 20.1141 24.1661 20.0177C24.0696 19.873 24.1178 19.68 24.2625 19.4388C24.4072 19.1977 24.6002 19.0047 24.8414 18.8118C24.8896 18.7635 24.8896 18.7635 24.8896 18.7635C24.8896 18.7635 24.9378 18.7635 24.9378 18.7153H24.8896C24.9378 18.6671 24.9861 18.6671 25.0343 18.6188C25.0825 18.5706 25.1308 18.5706 25.179 18.5224L25.2272 18.4741C25.2272 18.4741 25.2272 18.4741 25.2755 18.4259C25.5649 17.413 25.8061 16.5447 25.999 15.8212C26.2402 15.0494 26.4331 14.3741 26.6743 13.7471C26.8672 13.12 27.1084 12.493 27.3014 11.9141C27.4943 11.3353 27.7355 10.66 28.0249 9.98472C28.3143 9.30942 28.6037 8.53765 28.9896 7.66942C29.3755 6.80118 29.8578 5.78824 30.4367 4.63059C30.8225 3.85883 31.2084 3.1353 31.5943 2.50824C31.932 1.88118 32.3178 1.30235 32.7037 0.820001L32.752 0.771766C32.8484 0.675295 32.9449 0.578824 33.0414 0.434118C33.1378 0.337647 33.2343 0.241177 33.379 0.144706C33.4273 0.0964708 33.5237 0.0964709 33.572 0.0482355C33.6202 1.83284e-07 33.7167 0 33.7649 0C33.8614 0 33.9096 0 34.0061 0C34.0543 0 34.1508 0.0482352 34.199 0.0964706C34.3437 0.144706 34.4402 0.241177 34.4884 0.337647C34.5367 0.434118 34.5849 0.530589 34.6331 0.62706C34.6814 0.771766 34.7296 0.916471 34.7296 1.06118C34.7296 1.20588 34.7296 1.35059 34.7296 1.4953C34.7296 1.64 34.7296 1.78471 34.7296 1.88118C34.7296 2.02588 34.7296 2.12236 34.6814 2.21883C34.6331 2.65294 34.5367 3.08706 34.4402 3.52118C34.3437 3.9553 34.2473 4.38942 34.1025 4.82353C34.0061 5.25765 33.8614 5.64354 33.7167 6.07765C33.572 6.51177 33.4272 6.94589 33.2825 7.42824C32.7037 8.92354 32.1731 10.2259 31.6425 11.2871C31.112 12.3965 30.5814 13.313 30.1472 14.133C29.6649 14.953 29.2308 15.6283 28.8449 16.1588C28.459 16.6894 28.1696 17.1235 27.8802 17.4612C27.639 17.7988 27.3978 18.04 27.1567 18.2812C26.9637 18.5224 26.7708 18.7153 26.5778 18.9083C26.4331 19.053 26.2884 19.1977 26.1919 19.2941C26.0955 19.3906 25.9508 19.4871 25.8061 19.6318C25.8061 19.6318 25.8061 19.6318 25.8061 19.68C25.8061 19.68 25.8061 19.68 25.8061 19.7283C25.8061 19.7765 25.8061 19.7765 25.7578 19.8247C25.7578 19.873 25.7096 19.873 25.7096 19.9212C25.6131 20.3553 25.5167 20.8377 25.3719 21.4165C25.2755 21.9471 25.179 22.5741 25.0825 23.2012C25.0825 23.3459 25.0343 23.4906 25.0343 23.6353C25.0343 23.78 25.0343 23.9247 25.0343 24.0694C25.0343 24.2624 25.0343 24.4553 25.0343 24.6C25.0343 24.793 25.0825 24.9377 25.1308 25.1306C25.179 25.2753 25.2272 25.42 25.3237 25.5647L25.3719 25.613C25.5649 25.613 25.7578 25.613 25.9508 25.613C26.1437 25.613 26.3367 25.5647 26.5296 25.5165C27.3978 25.3718 28.2178 25.1788 29.0378 24.9859C29.8578 24.793 30.5814 24.6 31.2084 24.4071C31.932 24.2141 32.6072 23.973 33.2343 23.78C33.8614 23.5871 34.4402 23.3459 35.019 23.153C36.1767 22.7671 37.1414 22.3812 38.0096 22.0436C38.8778 21.7059 39.6496 21.3683 40.3249 21.0788C41.4343 20.5965 42.2543 20.2106 42.8331 19.873C43.412 19.5835 43.8461 19.3424 44.0873 19.1977C44.1355 19.1494 44.1355 19.1494 44.1837 19.1494C44.1837 19.1494 44.1837 19.1494 44.232 19.1012C44.5696 18.9083 44.859 18.8118 45.1484 18.7635C45.4378 18.7635 45.6308 18.8118 45.679 18.9565ZM26.9637 15.6765C26.8672 15.9177 26.7708 16.2071 26.6743 16.4965C26.5778 16.7859 26.4814 17.0753 26.3849 17.413C26.6743 17.1235 27.012 16.7377 27.3978 16.2553C27.7837 15.773 28.2661 15.1459 28.7967 14.3741C29.3272 13.5541 29.9543 12.5412 30.5814 11.2871C31.2567 10.033 31.8837 8.58589 32.5108 6.94589C32.7037 6.46354 32.8484 5.98118 32.9931 5.45059C33.1378 4.92 33.2825 4.43765 33.4273 3.90706C33.4755 3.66589 33.5237 3.37647 33.572 3.08706C33.6202 2.79765 33.6684 2.50824 33.7167 2.21883C33.7649 1.92941 33.7649 1.64 33.7649 1.35059C33.7649 1.25412 33.7649 1.15765 33.7167 1.01294C33.6684 1.06118 33.572 1.15765 33.5237 1.20588C33.4272 1.30235 33.379 1.39882 33.2825 1.54353C33.1861 1.68824 33.0896 1.83294 32.9931 1.97765C32.8002 2.26706 32.6555 2.55647 32.4625 2.89412C32.2696 3.23177 32.1249 3.52118 31.9802 3.81059C31.6425 4.48589 31.3049 5.16118 30.9672 5.83648C30.6296 6.51177 30.292 7.28354 29.9543 8.00707C29.5202 8.97177 29.1825 9.79177 28.8931 10.5153C28.6037 11.2388 28.3625 11.8659 28.1214 12.4447C28.1214 12.493 28.0731 12.5412 28.0731 12.5412C28.0731 12.5894 28.0731 12.5894 28.0249 12.6377C27.8319 13.1682 27.639 13.6506 27.4461 14.133C27.3496 14.6635 27.1567 15.1459 26.9637 15.6765Z" fill="#32333E"/>
<path d="M44.1356 19.873C44.232 19.6801 44.3285 19.4871 44.425 19.3424C44.5214 19.1977 44.6179 19.053 44.7626 18.9565C44.8591 18.8601 44.9556 18.7636 45.1003 18.7636C45.1967 18.7154 45.2932 18.7154 45.3897 18.7636C45.4379 18.8118 45.5344 18.8601 45.5344 18.9565C45.5826 19.053 45.5826 19.1977 45.5826 19.3424C45.5826 19.4871 45.5344 19.6801 45.4861 19.8248C45.4379 20.0177 45.3897 20.2107 45.2932 20.3554C45.245 20.4036 45.245 20.5001 45.1967 20.5483C45.1485 20.5965 45.1485 20.693 45.1003 20.7412C45.052 20.7895 45.0038 20.8859 45.0038 20.9824C44.9556 21.0789 44.9073 21.1754 44.8109 21.3201C44.7144 21.4648 44.6661 21.6577 44.5697 21.8507C44.4732 22.0436 44.3285 22.333 44.1838 22.6224C44.1356 22.7189 44.0873 22.7671 44.0391 22.8636C43.9909 22.9601 43.9426 23.0565 43.8944 23.153C43.6532 23.6354 43.412 24.2624 43.0744 24.9377C42.7367 25.6612 42.3991 26.4812 41.965 27.3977C41.9167 27.446 41.9167 27.5424 41.8685 27.5907C41.8203 27.6389 41.8203 27.7354 41.772 27.7836C41.2897 28.9412 40.7108 30.2918 40.0356 31.8354C39.3603 33.3789 38.6367 35.1636 37.865 37.2377C37.672 37.8165 37.4308 38.4436 37.1897 39.0707C36.9485 39.6977 36.7556 40.373 36.5626 41.0483C36.5144 41.193 36.5144 41.3377 36.4661 41.4824C36.4179 41.6271 36.4179 41.7718 36.3697 41.9166C36.5144 41.6271 36.6591 41.2895 36.8038 40.9518C36.9485 40.6142 37.0932 40.2766 37.2379 39.9389C37.8167 38.6848 38.4438 37.3824 39.0708 35.9836C39.7461 34.5848 40.4697 33.1377 41.2897 31.7389C41.9167 30.5813 42.5438 29.6165 43.0744 28.7483C43.6532 27.8801 44.1356 27.1083 44.6179 26.5295C45.052 25.9024 45.5344 25.3236 45.9685 24.793C46.4026 24.2624 46.9332 23.6836 47.4156 23.153C47.9944 22.5742 48.6214 21.9954 49.2485 21.4648C49.6344 21.1754 50.0203 20.8377 50.5026 20.5483C50.9367 20.2589 51.4673 19.9695 51.9979 19.6801C52.2873 19.5354 52.625 19.3906 52.9144 19.2942C53.252 19.1977 53.5897 19.053 53.9756 19.0048C54.4579 18.9083 54.9885 18.8601 55.5673 18.8601C55.712 18.8601 55.8085 18.8601 55.9532 18.8601C56.0979 18.8601 56.2426 18.8601 56.3873 18.9083H56.4356C56.4838 18.9083 56.4838 18.9083 56.4838 18.9083C56.532 18.9083 56.5803 18.9083 56.6767 18.9565C56.725 18.9565 56.8215 19.0048 56.8697 19.053C56.9179 19.1012 57.0144 19.1495 57.0144 19.1977C57.0626 19.2459 57.0626 19.2942 57.1109 19.3906C57.1591 19.4871 57.1591 19.6318 57.1591 19.7283C57.1591 19.873 57.1591 20.0177 57.1109 20.1624C57.0626 20.3071 57.0144 20.4036 56.9662 20.5001V20.5483C56.9662 20.5483 56.9662 20.5483 56.9662 20.5965C56.8697 20.8377 56.725 21.0789 56.6285 21.2718C56.532 21.4648 56.3873 21.7059 56.2909 21.8989C56.0497 22.333 55.7603 22.7189 55.4226 23.153C55.1332 23.5871 54.7956 24.0212 54.4579 24.4554L54.072 24.9859C53.9756 25.1307 53.8791 25.2754 53.7826 25.3718C53.6862 25.5165 53.5897 25.613 53.4932 25.7577C53.3967 25.8542 53.3003 25.9507 53.252 26.0471C53.1556 26.1436 53.1073 26.2401 53.0109 26.3365L55.712 25.3718C56.6767 25.1789 57.545 25.0342 58.3167 24.793C59.1367 24.6001 59.8603 24.3589 60.5838 24.1659C62.0309 23.7318 63.3332 23.2495 64.4426 22.8154C65.552 22.3812 66.5168 21.9954 67.3368 21.6095C68.1568 21.2236 68.8803 20.8859 69.4591 20.5965C70.0379 20.3071 70.5203 20.0659 70.9544 19.8248C71.3403 19.6318 71.6779 19.4389 71.8709 19.3424C72.1121 19.2459 72.2568 19.1495 72.3532 19.1012C72.7391 18.9083 73.0768 18.7636 73.3662 18.7154C73.6556 18.6671 73.8968 18.7154 73.9932 18.8601C74.0415 18.9083 74.0415 19.0048 74.0415 19.1495C73.9932 19.2459 73.945 19.3906 73.8485 19.4871C73.7521 19.6318 73.6556 19.7283 73.5109 19.873C73.3662 20.0177 73.1732 20.1142 73.0285 20.2107C72.9321 20.2589 72.7873 20.3554 72.6426 20.4036C72.4979 20.5001 72.305 20.5965 72.0156 20.7412C71.9673 20.7412 71.9191 20.7895 71.8709 20.7895C71.8226 20.8377 71.7744 20.8377 71.7262 20.8859C71.4368 21.0307 71.0991 21.1754 70.7132 21.3683C70.3273 21.5612 69.7968 21.8024 69.1697 22.0918C68.4462 22.4295 67.5297 22.8154 66.4203 23.2495C65.3591 23.6836 64.0085 24.1659 62.5132 24.6483C61.7415 24.8895 60.8732 25.1307 59.9567 25.3718C59.0403 25.613 58.0756 25.8542 57.0144 26.0471C56.8697 26.0954 56.6285 26.1436 56.3391 26.2401C56.0497 26.3365 55.7603 26.433 55.4226 26.5777C55.085 26.7224 54.7473 26.8189 54.4097 26.9154C54.072 27.0118 53.6862 27.1083 53.3967 27.2048C53.0591 27.253 52.7697 27.3012 52.5285 27.3012C52.2873 27.3012 52.0462 27.2048 51.9014 27.1083C51.7567 27.0118 51.6603 26.8671 51.6603 26.7707C51.6603 26.6742 51.6603 26.5777 51.7567 26.4812C51.8532 26.3848 51.9497 26.2401 52.0944 26.0954C52.2391 25.9507 52.432 25.8059 52.625 25.613C52.8179 25.4201 53.0109 25.1789 53.252 24.9377C53.4932 24.6965 53.6862 24.3589 53.9273 23.973C54.072 23.7318 54.265 23.4424 54.4097 23.2012C54.6026 22.9601 54.7473 22.7189 54.9403 22.4777C55.1332 22.2365 55.2779 21.9954 55.4709 21.7542C55.6638 21.513 55.8085 21.3201 55.905 21.0789C55.9532 20.9824 56.0497 20.8377 56.0979 20.7412C56.1462 20.5965 56.2426 20.5001 56.2426 20.4036C56.2909 20.3071 56.3391 20.2107 56.3391 20.1142C56.3873 20.0177 56.3873 19.9212 56.3873 19.8248H56.3391C56.2909 19.8248 56.2909 19.8248 56.2909 19.8248C56.2426 19.8248 56.2426 19.8248 56.1944 19.8248C56.1462 19.8248 56.1462 19.8248 56.0979 19.7765C56.0979 19.7765 56.0497 19.7765 56.0015 19.7765C55.9532 19.7765 55.9532 19.7765 55.905 19.7765C55.8085 19.7765 55.712 19.7765 55.6638 19.7765C55.5673 19.7765 55.5191 19.7765 55.4226 19.7765C54.9885 19.7765 54.5062 19.8248 54.1203 19.9212C53.6862 20.0177 53.3003 20.1142 52.9626 20.2589C52.5767 20.4036 52.2391 20.5483 51.9497 20.7412C51.612 20.9342 51.3226 21.0789 51.0332 21.2718C50.4544 21.6577 49.972 22.0436 49.5379 22.4295C49.1038 22.8154 48.7179 23.2012 48.3803 23.5389C47.9944 23.9248 47.6567 24.3107 47.3673 24.6483C47.0779 24.9859 46.7885 25.3236 46.5956 25.613C46.1132 26.2401 45.6309 26.9154 45.1967 27.5907C44.7144 28.266 44.2803 28.9895 43.7979 29.7612C43.3156 30.533 42.785 31.4495 42.1579 32.5107C41.5791 33.5718 40.9038 34.7777 40.1803 36.1765C39.7461 36.9965 39.3603 37.7683 39.0226 38.4436C38.685 39.1671 38.3473 39.7942 38.0579 40.4213C38.0097 40.5177 37.9614 40.6142 37.9132 40.7589C37.865 40.8554 37.8167 40.9518 37.7685 41.0965C37.6238 41.4342 37.4308 41.7718 37.2861 42.1095C37.1414 42.4471 36.9485 42.7366 36.852 43.026C36.852 43.0742 36.8038 43.1224 36.8038 43.1224C36.7556 43.1707 36.7556 43.2189 36.7556 43.2189C36.6591 43.4118 36.5144 43.653 36.3697 43.846C36.3697 43.846 36.3697 43.846 36.3214 43.8942L36.2732 43.9424C36.2732 43.9424 36.2732 43.9424 36.2732 43.9907C36.2732 43.9907 36.225 44.0389 36.1285 44.1354C36.0803 44.1836 36.032 44.1836 35.9838 44.2318L35.9355 44.2801C35.9355 44.2801 35.8873 44.2801 35.8391 44.2801C35.7908 44.2801 35.7426 44.2801 35.6461 44.2801C35.5497 44.2801 35.5014 44.2318 35.4532 44.1836C35.405 44.1354 35.3567 44.1354 35.3567 44.0871C35.3567 44.0389 35.3085 44.0389 35.3085 43.9907L35.2603 43.7977V43.7495C35.2603 43.7013 35.2603 43.653 35.2603 43.6048C35.2603 43.5566 35.2603 43.5083 35.2603 43.4601C35.2603 43.1707 35.3085 42.8813 35.3567 42.5436C35.405 42.2542 35.5014 41.9648 35.5497 41.6754C35.5979 41.4342 35.6944 41.1448 35.7426 40.9036C35.7908 40.6624 35.8873 40.373 35.9838 40.1318C36.1285 39.6495 36.3214 39.1189 36.5144 38.5401C36.7073 38.0095 36.9003 37.4307 37.0932 36.8518C37.8167 34.9707 38.4438 33.2824 39.0226 31.8836C39.6014 30.4365 40.132 29.2307 40.5661 28.1695C40.7591 27.6871 40.952 27.2048 41.145 26.7707C41.3379 26.3365 41.4826 25.9507 41.6273 25.5648C41.772 25.1789 41.9167 24.8412 42.0614 24.4554C42.2061 24.1177 42.3509 23.7801 42.4473 23.5389C42.592 23.2012 42.7367 22.8636 42.8332 22.6224C42.9297 22.333 43.0261 22.0918 43.1226 21.8989C43.2191 21.7059 43.3156 21.513 43.3638 21.3201C43.412 21.1754 43.5085 20.9824 43.5567 20.8377C43.605 20.693 43.7014 20.5483 43.7497 20.4036C43.9909 20.2106 44.0873 20.0659 44.1356 19.873Z" fill="#32333E"/>
<path d="M72.9802 18.6671C73.1732 18.6189 73.3661 18.6671 73.5108 18.7636C73.6555 18.8601 73.752 19.0048 73.8002 19.1977C73.8485 19.3906 73.8002 19.5354 73.7038 19.6318C73.6073 19.7765 73.4626 19.873 73.2696 19.9212C73.2214 19.9212 73.1732 19.9695 73.1732 19.9695C73.1732 19.9695 73.1249 19.9695 73.0767 19.9695C73.0285 19.9695 72.9802 19.9695 72.8838 19.9695C72.7873 19.9695 72.6426 20.0177 72.4496 20.0659C72.4014 20.0659 72.4014 20.1142 72.3532 20.1142C72.2085 20.1624 72.0155 20.2106 71.7743 20.3071C71.5332 20.4036 71.2438 20.5483 70.9543 20.7412C70.8096 20.8377 70.6649 20.9824 70.5202 21.1271C70.3755 21.2718 70.2791 21.4648 70.1826 21.7059C70.1343 21.8506 70.0861 22.0436 70.0861 22.1883C70.0861 22.5742 70.1826 23.0083 70.4238 23.4424C70.5685 23.7801 70.8579 24.0212 71.2438 24.3107C71.4367 24.4554 71.6296 24.5518 71.8708 24.6483C72.112 24.7448 72.3532 24.8412 72.5943 24.9377C73.1249 25.1307 73.6555 25.2271 74.2826 25.3236C74.9096 25.4201 75.5367 25.4683 76.2602 25.4683C76.6943 25.4683 77.0802 25.4683 77.3696 25.4683C77.6591 25.4683 77.9485 25.4201 78.2379 25.4201H78.2861C78.5273 25.4201 78.7685 25.3718 79.0096 25.3718C79.2508 25.3718 79.492 25.3236 79.7332 25.2754C79.9744 25.2271 80.2638 25.1789 80.5532 25.1307C80.8426 25.0824 81.1802 24.9859 81.5661 24.8895C81.952 24.793 82.4344 24.6001 82.9167 24.4554C83.3991 24.3107 84.0261 24.0212 84.7014 23.6836C85.3767 23.3459 86.0038 23.0083 86.5344 22.7189C87.065 22.3812 87.5473 22.0918 87.9814 21.8024C88.4155 21.513 88.8497 21.2718 89.1391 21.0306C89.4767 20.7895 89.7661 20.5965 89.9591 20.4036C90.4414 20.0659 90.7791 19.7765 91.0203 19.5836C91.2614 19.3906 91.4061 19.2942 91.4544 19.1977C91.5991 19.053 91.792 19.0048 91.985 19.053C92.1779 19.053 92.3226 19.1495 92.4191 19.2459C92.5155 19.3906 92.5638 19.5354 92.5155 19.7283C92.4673 19.9212 92.4191 20.0659 92.2261 20.2106C92.1779 20.2589 92.1297 20.3071 92.0332 20.3554C91.9367 20.4036 91.8403 20.5001 91.6473 20.5965C91.5508 20.6448 91.4544 20.693 91.3579 20.7895C91.2614 20.8377 91.1167 20.9342 90.972 21.0306C90.8755 21.0789 90.8273 21.1271 90.7308 21.1754C90.6344 21.2236 90.5379 21.3201 90.4414 21.3683C90.2485 21.513 90.0073 21.6577 89.7661 21.8024C89.525 21.9471 89.2355 22.1401 88.8979 22.333C88.4155 22.6224 87.8367 22.9601 87.2097 23.2977C86.5826 23.6354 85.8108 24.0212 84.9426 24.4071C84.1226 24.7448 83.3991 25.0342 82.772 25.2754C82.1449 25.5165 81.6144 25.6612 81.1802 25.8059C80.7461 25.9507 80.312 26.0471 79.9744 26.1436C79.6367 26.2401 79.2991 26.2883 79.0096 26.3848C78.7202 26.433 78.4791 26.4812 78.1896 26.5295C77.9002 26.5777 77.6108 26.5777 77.2732 26.6259C77.032 26.6742 76.7426 26.6742 76.4049 26.6742C76.1638 26.6742 75.8744 26.6742 75.5849 26.6259C75.2955 26.6259 74.9579 26.5777 74.6202 26.5295C73.8967 26.433 73.2696 26.2401 72.739 26.0954C72.2085 25.9507 71.7743 25.7095 71.3885 25.5165C71.1955 25.4201 71.0508 25.3236 70.8579 25.2271C70.6649 25.1307 70.5202 24.9859 70.3755 24.8412C70.2308 24.6965 70.0379 24.5518 69.9414 24.4071C69.7967 24.2624 69.7002 24.0212 69.5555 23.8283C69.2661 23.2977 69.1214 22.7671 69.1214 22.2365C69.1214 22.0436 69.1214 21.8989 69.1696 21.8024C69.2179 21.513 69.3626 21.2236 69.5073 20.9824C69.652 20.7412 69.7967 20.5483 69.9896 20.4036C70.279 20.1142 70.5685 19.9212 70.8096 19.7765C71.0508 19.6318 71.292 19.4871 71.4849 19.4389C71.5332 19.4389 71.5332 19.4389 71.5814 19.3906C71.7743 19.2942 71.9191 19.2459 72.0638 19.1977C72.2085 19.1495 72.3049 19.1012 72.4014 19.053C72.4979 19.0048 72.5943 19.0048 72.6908 18.9565C72.7873 18.9083 72.8838 18.7154 72.9802 18.6671Z" fill="#32333E"/>
<path d="M120.444 18.812C120.637 18.7155 120.878 18.6673 121.071 18.7155C121.264 18.7638 121.408 18.8602 121.505 19.0049C121.601 19.1979 121.601 19.3426 121.505 19.5355C121.408 19.7285 121.264 19.8732 121.022 19.9696C120.974 19.9696 120.974 20.0179 120.926 20.0179C120.878 20.0179 120.878 20.0179 120.83 20.0661C120.781 20.0661 120.685 20.1143 120.588 20.1626C120.492 20.2108 120.299 20.3073 120.01 20.4038C119.768 20.5002 119.431 20.6449 119.045 20.7896C118.659 20.9343 118.128 21.1755 117.501 21.4649C117.019 21.7061 116.44 21.9473 115.765 22.2367C115.09 22.5261 114.366 22.8638 113.498 23.2496C113.208 23.3943 112.871 23.4908 112.581 23.6355C112.244 23.7802 111.954 23.9249 111.568 24.1179C111.327 24.2626 111.038 24.3591 110.748 24.5038C110.459 24.6485 110.17 24.7449 109.88 24.8896C109.542 25.0343 109.205 25.1791 108.819 25.3238C108.433 25.4685 108.095 25.6132 107.661 25.7579C107.227 25.9026 106.841 26.0473 106.359 26.1438C105.925 26.2885 105.442 26.3849 104.912 26.3849C104.719 26.3849 104.574 26.3849 104.381 26.3849C104.188 26.3849 104.044 26.3367 103.851 26.2885C103.754 26.2402 103.658 26.192 103.561 26.1438C103.465 26.0955 103.368 26.0473 103.32 25.9508C103.175 25.8061 103.031 25.6132 102.982 25.4202V25.4685C102.934 25.2755 102.886 25.1308 102.886 24.9861C102.886 24.8414 102.886 24.6967 102.886 24.6002C102.886 24.4555 102.934 24.3108 102.934 24.2626C102.934 24.2143 102.934 24.1661 102.982 24.1179L103.031 23.9249C103.175 23.5391 103.272 23.2014 103.417 22.912C103.561 22.6226 103.658 22.3332 103.802 22.0438C103.947 21.7543 104.092 21.4167 104.285 21.0791C104.478 20.7414 104.719 20.3073 104.96 19.8732C104.622 19.9696 104.237 20.0179 103.851 20.1143C103.465 20.2108 103.031 20.3073 102.597 20.3555C101.584 20.5485 100.667 20.6449 99.8471 20.6932C99.0271 20.7414 98.2554 20.7896 97.5319 20.7896C96.8083 20.7896 96.2295 20.7414 95.6507 20.6932C95.1201 20.6449 94.6377 20.5967 94.2036 20.5002C93.4801 20.3555 92.9013 20.2591 92.5154 20.1626C92.1295 20.0661 91.8883 19.9696 91.7436 19.9214H91.6954C91.4542 19.8249 91.2613 19.7285 91.1648 19.5355C91.0683 19.3426 91.0201 19.1496 91.1165 19.0049C91.1648 18.8602 91.3095 18.7638 91.5024 18.7155C91.6954 18.6673 91.8883 18.6673 92.0813 18.7638C92.1777 18.812 92.2742 18.812 92.3224 18.812C92.2742 18.812 92.2742 18.812 92.2742 18.812C92.3224 18.812 92.3224 18.8602 92.3707 18.8602C92.4189 18.8602 92.4671 18.9085 92.5154 18.9085C92.6601 18.9567 92.8048 19.0049 92.9977 19.1014C93.1907 19.1496 93.4801 19.2461 93.7695 19.3426C94.1071 19.4391 94.493 19.4873 94.9754 19.5838C95.4577 19.6802 96.0848 19.7285 96.7601 19.8249C97.0013 19.8249 97.2907 19.8732 97.5801 19.8732C97.8695 19.8732 98.1589 19.8732 98.4966 19.8732C99.0271 19.8732 99.6542 19.8732 100.33 19.7767C101.005 19.7285 101.728 19.632 102.452 19.5355C103.031 19.4391 103.561 19.3426 104.044 19.2461C104.526 19.1496 104.96 19.0532 105.346 18.9567C105.346 18.9567 105.394 18.9567 105.442 18.9567C105.491 18.9567 105.491 18.9567 105.539 18.9567C105.635 18.9567 105.732 18.9085 105.877 18.9085C105.973 18.9085 106.07 18.9085 106.166 18.9567C106.214 19.0049 106.262 19.1014 106.262 19.1979C106.262 19.2943 106.166 19.4873 106.021 19.7767L105.973 19.8732C105.925 19.9214 105.877 20.0179 105.877 20.1143C105.828 20.2108 105.828 20.2591 105.78 20.3555C105.732 20.452 105.684 20.5002 105.635 20.5967C105.587 20.6932 105.539 20.7414 105.491 20.8379C105.201 21.3685 105.008 21.8508 104.815 22.2849C104.622 22.7191 104.478 23.0567 104.381 23.4426C104.333 23.5873 104.285 23.7802 104.237 23.9249C104.188 24.0696 104.14 24.2626 104.14 24.4073C104.14 24.4555 104.092 24.552 104.092 24.6485C104.092 24.7449 104.092 24.7932 104.092 24.8414C104.092 24.9861 104.14 25.1308 104.188 25.2273C104.237 25.3238 104.333 25.372 104.478 25.4202C104.622 25.4685 104.815 25.4685 105.008 25.4685C105.25 25.4685 105.539 25.4202 105.828 25.372C106.118 25.3238 106.455 25.2755 106.745 25.1791C107.131 25.0826 107.565 24.9379 107.951 24.8414C108.337 24.6967 108.722 24.6002 109.06 24.4555C109.253 24.4073 109.446 24.3108 109.639 24.2144C109.832 24.1179 110.025 24.0696 110.17 24.0214C110.266 23.9732 110.362 23.9732 110.411 23.9249C110.507 23.8767 110.555 23.8767 110.652 23.8285C110.99 23.6838 111.327 23.5391 111.617 23.3943C111.906 23.2496 112.244 23.1049 112.581 22.9602C112.678 22.912 112.822 22.8638 112.967 22.7673C113.112 22.7191 113.257 22.6708 113.353 22.5743C114.125 22.1885 114.848 21.8991 115.475 21.5614C116.102 21.272 116.633 21.0308 117.067 20.7896C117.501 20.5485 117.935 20.3555 118.225 20.2108C118.514 20.0661 118.804 19.9214 119.045 19.7767C119.286 19.6802 119.431 19.5838 119.575 19.4873C119.72 19.3908 119.817 19.3426 119.961 19.2943C120.058 19.2461 120.154 19.1979 120.251 19.1496C120.202 18.9567 120.299 18.9085 120.444 18.812Z" fill="#32333E"/>
<path d="M146.877 19.0046C146.925 19.0528 146.925 19.1493 146.828 19.294C146.78 19.3904 146.684 19.5352 146.539 19.6316C146.394 19.7281 146.249 19.8728 146.057 20.0175C145.864 20.114 145.622 20.2587 145.381 20.3552C145.285 20.4034 145.237 20.4034 145.14 20.4516C145.092 20.4516 144.995 20.4999 144.899 20.4999C144.851 20.4999 144.802 20.5481 144.754 20.5481C144.706 20.5481 144.658 20.5963 144.609 20.5963C144.417 20.6446 144.127 20.741 143.789 20.8375C143.452 20.934 142.921 21.0787 142.294 21.2716C141.619 21.4646 140.751 21.6575 139.689 21.8987C138.628 22.1399 137.326 22.3328 135.782 22.574C135.734 22.574 135.734 22.574 135.686 22.574C135.638 22.574 135.589 22.574 135.541 22.574C135.493 22.574 135.493 22.574 135.445 22.574C135.397 22.6222 135.348 22.7187 135.3 22.7669C135.252 22.8152 135.204 22.9116 135.155 22.9599C134.721 23.4905 134.335 24.021 133.901 24.4552C133.467 24.8893 133.033 25.3234 132.599 25.7575C132.358 25.9505 132.117 26.1434 131.875 26.2881C131.634 26.4328 131.393 26.6257 131.152 26.7222C131.055 26.7705 130.911 26.8187 130.766 26.8669C130.621 26.9152 130.525 26.9634 130.332 27.0116C130.187 27.0599 130.042 27.1081 129.898 27.1081C129.753 27.1081 129.657 27.1563 129.512 27.1563C129.367 27.1563 129.174 27.2046 129.029 27.2046C128.837 27.2046 128.692 27.2046 128.547 27.2046C128.209 27.2046 127.92 27.2046 127.631 27.1563C127.341 27.1081 127.052 27.1081 126.762 27.0599C126.328 27.0116 125.942 26.9152 125.557 26.7705C125.171 26.6257 124.833 26.5293 124.495 26.3846C123.145 25.854 121.939 25.1787 120.829 24.3587C120.685 24.2622 120.54 24.1657 120.444 24.021C120.299 23.8763 120.202 23.7799 120.058 23.6352L120.009 23.5869C119.961 23.5387 119.961 23.5387 119.913 23.4905C119.865 23.4422 119.865 23.4422 119.865 23.394C119.817 23.3457 119.768 23.2975 119.768 23.201C119.768 23.1528 119.72 23.0563 119.72 22.9116C119.72 22.8152 119.768 22.7187 119.817 22.6222C119.865 22.5257 119.961 22.4775 120.009 22.4293C120.058 22.4293 120.058 22.4293 120.106 22.381C120.154 22.381 120.154 22.381 120.202 22.381C120.202 22.381 120.202 22.381 120.251 22.381H120.299C120.347 22.381 120.395 22.381 120.444 22.381C120.492 22.381 120.54 22.381 120.588 22.381C120.878 22.381 121.167 22.3328 121.457 22.3328C121.746 22.3328 122.084 22.3328 122.373 22.3328H123.482C125.749 22.3328 127.824 22.2846 129.608 22.1399C131.393 21.9952 132.985 21.8505 134.335 21.7057C134.384 21.7057 134.48 21.6575 134.528 21.6575C134.577 21.6575 134.673 21.6575 134.721 21.6093C135.107 21.0787 135.445 20.4999 135.831 19.8728C136.168 19.2457 136.554 18.6187 136.892 17.9434C137.615 16.4963 138.146 15.194 138.484 14.0363C138.677 13.4575 138.821 12.9269 138.918 12.3963C139.014 11.914 139.062 11.3834 139.111 10.9493C139.111 10.5151 139.111 10.081 139.062 9.69515C139.014 9.30926 138.869 8.92338 138.725 8.58573C138.58 8.29632 138.339 8.00691 138.049 7.76573C137.76 7.52456 137.422 7.37985 137.037 7.28338C136.844 7.23514 136.651 7.18691 136.409 7.18691C136.168 7.18691 135.975 7.23514 135.734 7.23514C135.3 7.23514 134.818 7.28338 134.239 7.42809C133.178 7.66926 132.068 8.19985 130.814 9.01985C130.187 9.40573 129.56 9.88809 128.885 10.4669C128.209 11.0457 127.534 11.6728 126.811 12.3963C126.087 13.1199 125.364 13.9399 124.592 14.8081C123.82 15.7246 123.048 16.7375 122.228 17.7987C122.18 17.8469 122.18 17.8952 122.132 17.8952C122.084 17.9434 122.084 17.9434 122.035 17.9916C121.987 18.0399 121.987 18.0881 121.939 18.0881C121.891 18.1363 121.891 18.1363 121.842 18.1846C121.794 18.2328 121.794 18.3293 121.746 18.3775C121.698 18.4257 121.698 18.5222 121.649 18.5704C121.553 18.7634 121.505 18.9563 121.408 19.101C121.312 19.294 121.264 19.4869 121.167 19.6799C120.974 20.114 120.733 20.5963 120.492 21.1269C120.251 21.6093 120.009 22.1399 119.768 22.6705C119.624 22.9116 119.479 23.201 119.334 23.4905C119.189 23.7799 119.045 24.021 118.852 24.3105C118.659 24.5999 118.466 24.8893 118.321 25.1305C118.273 25.2269 118.177 25.2752 118.128 25.3716C118.08 25.4199 117.984 25.5163 117.935 25.5646C117.887 25.6128 117.839 25.6128 117.791 25.661C117.742 25.7093 117.694 25.7575 117.598 25.8057C117.598 25.8057 117.598 25.8057 117.549 25.8057H117.501C117.453 25.8057 117.453 25.8057 117.405 25.8057C117.405 25.8057 117.357 25.8057 117.308 25.8057C117.26 25.8057 117.212 25.8057 117.164 25.7575C117.115 25.7093 117.067 25.7093 117.019 25.661L117.067 25.7093C117.019 25.661 116.971 25.6128 116.922 25.5646C116.922 25.5163 116.874 25.4681 116.874 25.4199C116.874 25.3234 116.826 25.2269 116.826 25.1787C116.826 25.1305 116.826 25.0822 116.826 25.034V24.9857C116.826 24.8893 116.874 24.7928 116.922 24.6963C116.971 24.6481 116.971 24.5516 117.019 24.4552C117.067 24.3587 117.067 24.2622 117.115 24.214C117.164 24.0693 117.26 23.8763 117.357 23.7316C117.453 23.5869 117.501 23.394 117.598 23.2493C117.791 22.9599 117.935 22.6222 118.128 22.2846C118.321 21.9469 118.514 21.6093 118.707 21.3199C118.997 20.8857 119.286 20.4034 119.624 19.921C119.961 19.4387 120.251 18.9563 120.588 18.474C120.685 18.281 120.781 18.0399 120.829 17.8469C120.926 17.654 120.974 17.4128 121.071 17.2199C121.119 17.1234 121.167 16.9787 121.215 16.8822C121.264 16.7857 121.312 16.641 121.36 16.5446C121.649 15.8693 121.891 15.194 122.132 14.5669C122.373 13.9399 122.566 13.361 122.807 12.8304C123.097 12.0587 123.386 11.3351 123.627 10.6599C123.868 9.98456 124.109 9.3575 124.302 8.82691C124.495 8.29632 124.64 7.81397 124.785 7.47632C124.929 7.09044 125.026 6.80103 125.074 6.60808C125.122 6.51161 125.122 6.46338 125.171 6.36691C125.171 6.31867 125.219 6.27044 125.219 6.2222C125.315 5.98102 125.412 5.73985 125.508 5.54691C125.605 5.35397 125.701 5.16102 125.846 5.01632C125.942 4.87161 126.039 4.77514 126.184 4.72691C126.28 4.67867 126.377 4.63044 126.473 4.67867C126.569 4.72691 126.618 4.77514 126.666 4.91985C126.714 5.06455 126.714 5.20926 126.714 5.35397C126.714 5.54691 126.714 5.73985 126.666 5.93279C126.618 6.17397 126.569 6.36691 126.473 6.60808C126.425 6.75279 126.377 6.8975 126.28 7.09044C126.232 7.28338 126.135 7.52456 125.991 7.8622C125.846 8.19985 125.701 8.6822 125.46 9.26103C125.219 9.83985 124.929 10.5634 124.592 11.5281C124.544 11.721 124.447 11.914 124.351 12.1069C124.254 12.2999 124.206 12.541 124.109 12.734C124.013 13.0234 123.917 13.2646 123.868 13.361C123.82 13.5057 123.772 13.6504 123.724 13.7469C123.675 13.8916 123.627 14.0363 123.531 14.2293C123.434 14.4222 123.338 14.7599 123.145 15.194C123.82 14.374 124.495 13.6022 125.122 12.8787C125.749 12.2034 126.377 11.5763 127.004 10.9493C127.824 10.1775 128.692 9.45397 129.512 8.82691C130.332 8.19985 131.152 7.7175 131.924 7.28338C132.599 6.94573 133.274 6.70456 133.949 6.51161C134.625 6.31867 135.252 6.2222 135.879 6.2222C135.975 6.2222 136.072 6.2222 136.168 6.2222C136.265 6.2222 136.361 6.2222 136.458 6.2222C136.795 6.27044 137.133 6.31867 137.471 6.41514C137.808 6.51161 138.098 6.65632 138.339 6.80103C138.58 6.94573 138.821 7.13867 139.062 7.37985C139.304 7.62103 139.448 7.8622 139.593 8.10338C139.834 8.5375 139.979 8.97162 140.027 9.40573C140.124 9.83985 140.124 10.274 140.124 10.7081C140.124 10.8046 140.124 10.901 140.124 10.9975C140.124 11.094 140.124 11.1904 140.124 11.2869C140.075 11.8175 140.027 12.3481 139.882 12.8787C139.786 13.4093 139.641 13.9881 139.448 14.5187C139.255 15.0975 139.062 15.6763 138.821 16.3034C138.58 16.9304 138.291 17.5575 137.953 18.2328C137.712 18.7152 137.471 19.1975 137.181 19.6799C136.892 20.2105 136.554 20.741 136.168 21.2716C137.085 21.1269 137.905 20.9822 138.58 20.8375C139.255 20.6928 139.882 20.5481 140.365 20.4516C140.992 20.2587 141.571 20.114 142.005 19.9693C142.439 19.8246 142.825 19.6799 143.162 19.5834C143.5 19.4869 143.789 19.3422 144.031 19.2457C144.32 19.1493 144.609 19.0528 144.947 18.9081C145.14 18.8116 145.381 18.7634 145.574 18.7152C145.767 18.6669 146.008 18.6187 146.153 18.6187C146.298 18.6187 146.491 18.6187 146.587 18.6187C146.732 18.9081 146.828 18.9563 146.877 19.0046ZM120.347 23.2493C120.444 23.2493 120.492 23.2493 120.492 23.201C120.444 23.201 120.444 23.201 120.395 23.201C120.395 23.2493 120.395 23.2493 120.347 23.2493C120.395 23.2493 120.395 23.2493 120.347 23.2493ZM132.937 24.0693C133.081 23.9246 133.178 23.8281 133.274 23.6834C133.371 23.5869 133.419 23.4905 133.515 23.394C133.612 23.2975 133.66 23.201 133.757 23.1046C133.853 23.0081 133.949 22.8634 134.046 22.7187C132.792 22.8634 131.345 22.9599 129.801 23.0563C128.209 23.1528 126.473 23.201 124.495 23.201C124.158 23.201 123.868 23.201 123.531 23.201C123.193 23.201 122.855 23.201 122.518 23.201H121.312C121.264 23.201 121.215 23.201 121.167 23.201C121.119 23.201 121.022 23.201 121.022 23.201H120.926C120.878 23.201 120.878 23.201 120.829 23.201C120.878 23.2493 120.878 23.2493 120.926 23.2975C120.974 23.3457 121.022 23.394 121.119 23.4905C121.215 23.5387 121.264 23.6352 121.36 23.6834C121.553 23.8281 121.698 23.9728 121.891 24.0693C122.084 24.1657 122.228 24.3105 122.421 24.4069C123.145 24.841 123.965 25.2752 124.881 25.6128C125.749 25.9505 126.714 26.1916 127.679 26.2881C127.824 26.2881 127.968 26.3363 128.161 26.3363C128.306 26.3363 128.451 26.3363 128.595 26.3363C128.692 26.3363 128.788 26.3363 128.885 26.3363C128.981 26.3363 129.078 26.3363 129.174 26.3363C129.271 26.3363 129.415 26.3363 129.512 26.2881C129.657 26.2881 129.753 26.2399 129.898 26.2399C130.042 26.2399 130.139 26.1916 130.235 26.1434C130.332 26.0952 130.428 26.0469 130.525 26.0469C130.959 25.854 131.393 25.5646 131.827 25.2269C132.117 24.8893 132.551 24.5034 132.937 24.0693Z" fill="#32333E"/>
<path d="M145.912 18.6671C146.105 18.6189 146.298 18.6671 146.442 18.7636C146.587 18.8601 146.683 19.0048 146.732 19.1977C146.78 19.3906 146.732 19.5354 146.635 19.6318C146.539 19.7765 146.394 19.873 146.201 19.9212C146.153 19.9212 146.105 19.9695 146.105 19.9695C146.105 19.9695 146.056 19.9695 146.008 19.9695C145.96 19.9695 145.912 19.9695 145.815 19.9695C145.719 19.9695 145.574 20.0177 145.381 20.0659C145.333 20.0659 145.333 20.1142 145.285 20.1142C145.14 20.1624 144.947 20.2106 144.706 20.3071C144.465 20.4036 144.175 20.5483 143.886 20.7412C143.741 20.8377 143.596 20.9824 143.452 21.1271C143.307 21.2718 143.21 21.4648 143.114 21.7059C143.066 21.8506 143.018 22.0436 143.018 22.1883C143.018 22.5742 143.114 23.0083 143.355 23.4424C143.5 23.7801 143.789 24.0212 144.175 24.3107C144.368 24.4554 144.561 24.5518 144.802 24.6483C145.043 24.7448 145.285 24.8412 145.526 24.9377C146.056 25.1307 146.587 25.2271 147.214 25.3236C147.841 25.4201 148.468 25.4683 149.192 25.4683C149.626 25.4683 150.012 25.4683 150.301 25.4683C150.59 25.4683 150.88 25.4201 151.169 25.4201H151.218C151.459 25.4201 151.7 25.3718 151.941 25.3718C152.182 25.3718 152.423 25.3236 152.665 25.2754C152.906 25.2271 153.195 25.1789 153.485 25.1307C153.774 25.0824 154.112 24.9859 154.498 24.8895C154.883 24.793 155.366 24.6001 155.848 24.4554C156.379 24.2624 156.958 24.0212 157.633 23.6836C158.308 23.3459 158.935 23.0083 159.466 22.7189C159.996 22.3812 160.479 22.0918 160.913 21.8024C161.347 21.513 161.781 21.2718 162.07 21.0306C162.408 20.7895 162.698 20.5965 162.89 20.4036C163.373 20.0659 163.71 19.7765 163.952 19.5836C164.193 19.3906 164.338 19.2942 164.386 19.1977C164.53 19.053 164.723 19.0048 164.916 19.053C165.109 19.053 165.254 19.1495 165.35 19.2459C165.447 19.3906 165.495 19.5354 165.447 19.7283C165.399 19.9212 165.35 20.0659 165.158 20.2106C165.109 20.2589 165.061 20.3071 164.965 20.3554C164.868 20.4036 164.772 20.5001 164.579 20.5965C164.482 20.6448 164.386 20.693 164.289 20.7895C164.193 20.8377 164.048 20.9342 163.903 21.0306C163.807 21.0789 163.759 21.1271 163.662 21.1754C163.566 21.2236 163.469 21.3201 163.373 21.3683C163.18 21.513 162.939 21.6577 162.698 21.8024C162.456 21.9471 162.167 22.1401 161.829 22.333C161.347 22.6224 160.768 22.9601 160.141 23.2977C159.514 23.6354 158.742 24.0212 157.874 24.4071C157.054 24.7448 156.33 25.0342 155.703 25.2754C155.076 25.4683 154.546 25.6612 154.112 25.8059C153.678 25.9507 153.243 26.0471 152.906 26.1436C152.568 26.2401 152.23 26.2883 151.941 26.3848C151.652 26.433 151.41 26.4812 151.121 26.5295C150.832 26.5777 150.542 26.5777 150.205 26.6259C149.963 26.6742 149.674 26.6742 149.336 26.6742C149.095 26.6742 148.806 26.6742 148.516 26.6259C148.227 26.6259 147.889 26.5777 147.552 26.5295C146.828 26.433 146.201 26.2401 145.67 26.0954C145.14 25.9024 144.706 25.7095 144.32 25.5165C144.127 25.4201 143.982 25.3236 143.789 25.2271C143.596 25.1307 143.452 24.9859 143.307 24.8412C143.162 24.6965 142.969 24.5518 142.873 24.4071C142.728 24.2624 142.632 24.0212 142.487 23.8283C142.197 23.2977 142.053 22.7671 142.053 22.2365C142.053 22.0436 142.053 21.8989 142.101 21.8024C142.149 21.513 142.294 21.2236 142.439 20.9824C142.583 20.7412 142.728 20.5483 142.921 20.4036C143.21 20.1142 143.5 19.9212 143.741 19.7765C143.982 19.6318 144.223 19.4871 144.416 19.4389C144.465 19.4389 144.465 19.4389 144.513 19.3906C144.706 19.2942 144.85 19.2459 144.995 19.1977C145.14 19.1495 145.236 19.1012 145.333 19.053C145.429 19.0048 145.526 19.0048 145.622 18.9565C145.719 18.9083 145.767 18.7154 145.912 18.6671Z" fill="#32333E"/>
<path d="M196.704 19.101C196.897 18.9563 197.138 18.8599 197.331 18.8599C197.572 18.8599 197.717 18.9081 197.813 19.0528C197.91 19.1975 197.909 19.3422 197.861 19.5834C197.765 19.7763 197.668 19.9693 197.475 20.114C197.475 20.114 197.427 20.1622 197.379 20.1622C197.331 20.2105 197.282 20.2105 197.282 20.2105C197.234 20.2105 197.186 20.2587 197.138 20.3069C197.089 20.3552 197.041 20.3552 196.945 20.4034C196.848 20.4516 196.8 20.4999 196.655 20.5963C196.559 20.6446 196.414 20.741 196.269 20.8857C196.221 20.934 196.173 20.934 196.125 20.9822C196.077 21.0305 196.028 21.0305 195.98 21.0787C195.498 21.4163 194.774 21.8505 193.858 22.4293C193.568 22.6222 193.231 22.8152 192.893 23.0081C192.555 23.201 192.121 23.394 191.687 23.6352C191.253 23.8281 190.771 24.0693 190.288 24.3105C189.758 24.5516 189.179 24.7446 188.6 24.9858C188.262 25.0822 187.925 25.1787 187.587 25.3234C187.201 25.4199 186.864 25.5163 186.429 25.6128C186.044 25.7093 185.609 25.7575 185.175 25.854C184.741 25.9022 184.307 25.9505 183.825 25.9505C183.391 25.9505 182.86 25.9505 182.378 25.854C181.847 25.8058 181.365 25.661 180.834 25.5163C180.304 25.3716 179.821 25.1305 179.291 24.841C178.76 24.5516 178.278 24.214 177.844 23.8281C177.265 23.2975 176.831 22.8152 176.493 22.381C176.155 21.8987 175.914 21.5128 175.673 21.1269C175.432 20.741 175.239 20.4034 175.094 20.0175C175.046 20.0175 175.046 20.0175 174.998 20.0657C174.66 20.2105 174.274 20.4034 173.84 20.6446C173.406 20.8375 172.924 21.1269 172.345 21.4646C171.911 21.7057 171.477 21.9952 170.898 22.3328C170.367 22.6705 169.788 23.0563 169.161 23.4422C168.92 23.5869 168.727 23.7316 168.486 23.8763C168.245 24.021 168.004 24.1658 167.762 24.3587C167.232 24.6963 166.749 24.9858 166.219 25.2269C165.737 25.5163 165.254 25.7575 164.772 25.9505C164.531 26.0469 164.289 26.1434 164 26.2399C163.759 26.3363 163.518 26.3846 163.277 26.4328C163.084 26.4811 162.842 26.481 162.601 26.481C162.264 26.481 162.022 26.4328 161.733 26.3363C161.733 26.3363 161.685 26.3363 161.685 26.2881C161.637 26.2881 161.637 26.2881 161.637 26.2399H161.588C161.588 26.2399 161.588 26.2399 161.54 26.2399H161.637H161.588L161.444 26.1434C161.347 26.0469 161.251 25.9987 161.251 25.9505C161.202 25.8058 161.154 25.7093 161.154 25.661C161.154 25.5646 161.154 25.5163 161.154 25.4199V25.3234C161.154 25.1787 161.202 25.0822 161.202 24.9375C161.251 24.841 161.251 24.7446 161.299 24.6481C161.347 24.4552 161.444 24.2622 161.492 24.1175C161.54 23.9728 161.637 23.7799 161.685 23.6352C161.974 23.0563 162.264 22.5257 162.505 22.0916C162.987 21.2234 163.373 20.5963 163.614 20.2105C163.855 19.8246 164 19.5352 164.097 19.4387C164.241 19.2457 164.434 19.0528 164.627 18.9563C164.82 18.8599 165.013 18.8599 165.158 18.9563C165.302 19.0528 165.351 19.1975 165.399 19.4387C165.399 19.6316 165.351 19.8728 165.158 20.114C165.158 20.1622 165.109 20.2105 165.061 20.2587C165.013 20.3069 164.965 20.3552 164.965 20.4034C164.868 20.4999 164.772 20.6928 164.579 20.934C164.434 21.1752 164.193 21.5128 163.855 21.9952C163.807 22.0434 163.807 22.0916 163.759 22.1399C163.759 22.1881 163.711 22.2363 163.711 22.2363C163.614 22.381 163.518 22.574 163.373 22.7187C163.277 22.9116 163.132 23.1046 163.035 23.2975C162.939 23.4422 162.891 23.5869 162.794 23.7316C162.698 23.8763 162.649 24.021 162.553 24.1658C162.457 24.3587 162.36 24.5034 162.312 24.6963C162.215 24.8893 162.167 25.034 162.119 25.2269C162.071 25.3234 162.071 25.3716 162.071 25.4199C162.119 25.4199 162.119 25.4681 162.119 25.4681C162.167 25.4681 162.215 25.5163 162.264 25.5163C162.312 25.5163 162.36 25.5163 162.457 25.5646C162.649 25.5646 162.891 25.5646 163.132 25.5163C163.373 25.4681 163.614 25.4199 163.855 25.3234C164.097 25.2752 164.338 25.1305 164.627 25.034C164.917 24.8893 165.206 24.7928 165.495 24.5999C165.785 24.4552 166.122 24.3105 166.412 24.1175C166.701 23.9246 167.039 23.7799 167.28 23.6352C167.714 23.394 168.1 23.1046 168.534 22.8634C168.92 22.6222 169.306 22.381 169.644 22.1399C169.74 22.0916 169.885 21.9952 169.981 21.9469C170.078 21.8987 170.222 21.8022 170.319 21.754C171.187 21.2234 171.911 20.741 172.586 20.4034C172.875 20.2105 173.165 20.0657 173.502 19.8728C173.792 19.7281 174.081 19.5352 174.322 19.4387L174.853 19.1493V19.0528H174.901H174.949L175.046 19.0046C175.046 19.0046 175.094 19.0046 175.142 18.9563C175.191 18.9563 175.191 18.9081 175.191 18.9081L175.818 19.2457C175.866 19.294 175.866 19.3422 175.914 19.3905C175.914 19.4387 175.962 19.4869 176.011 19.5352C176.204 19.921 176.445 20.3069 176.686 20.6446C176.927 20.9822 177.168 21.3681 177.506 21.754C177.651 21.9469 177.844 22.1399 177.988 22.3328C178.181 22.5257 178.374 22.7187 178.615 22.9599C178.857 23.1528 179.098 23.394 179.387 23.5869C179.677 23.7799 180.014 24.021 180.4 24.214C180.882 24.4552 181.365 24.6481 181.799 24.7928C182.233 24.9375 182.667 24.9858 183.053 25.034C183.439 25.0822 183.825 25.1305 184.162 25.1305C184.307 25.1305 184.452 25.1305 184.645 25.1305C184.838 25.1305 184.982 25.1305 185.127 25.0822C185.706 25.034 186.237 24.8893 186.815 24.7446C187.394 24.5999 187.973 24.4552 188.552 24.214C189.565 23.8281 190.433 23.4422 191.157 23.0563C191.88 22.6705 192.507 22.3328 192.99 21.9952C193.52 21.6575 193.954 21.3681 194.292 21.1269C194.629 20.8857 194.919 20.6928 195.16 20.4999C195.401 20.3069 195.594 20.1622 195.787 20.0175C195.932 19.8728 196.077 19.7763 196.221 19.6799C196.318 19.5834 196.414 19.4869 196.511 19.4387C196.462 19.294 196.559 19.1975 196.704 19.101Z" fill="#32333E"/>
<path d="M222.751 19.0049C222.799 19.1496 222.799 19.3426 222.751 19.4873C222.654 19.6802 222.558 19.7767 222.365 19.8731C222.317 19.8731 222.269 19.9214 222.269 19.9214C222.22 19.9214 222.22 19.9214 222.172 19.9696C222.124 19.9696 222.124 19.9696 222.027 20.0178C221.979 20.0178 221.883 20.0661 221.786 20.0661C221.69 20.1143 221.545 20.1626 221.352 20.2108C221.159 20.259 220.918 20.3555 220.629 20.452C220.243 20.5967 219.712 20.7896 219.133 21.0308C218.506 21.272 217.783 21.5614 216.818 21.899C215.901 22.2367 214.792 22.6226 213.538 23.1049C212.284 23.539 210.789 24.0696 209.052 24.6002C207.316 25.1308 205.724 25.5167 204.277 25.8543C202.83 26.1437 201.479 26.3367 200.273 26.3367C199.646 26.3367 199.067 26.2884 198.537 26.2402C198.006 26.1437 197.476 25.999 197.041 25.7096C196.8 25.5649 196.607 25.4202 196.414 25.2273C196.221 25.0343 196.077 24.8414 195.98 24.6484C195.836 24.4555 195.739 24.2143 195.691 24.0214C195.643 23.7802 195.594 23.5873 195.546 23.4426C195.498 23.0567 195.546 22.719 195.594 22.3814C195.643 22.092 195.691 21.8026 195.787 21.5131C195.884 21.2237 195.932 20.9343 196.029 20.7896C196.077 20.5967 196.125 20.452 196.221 20.3555C196.318 20.1143 196.414 19.8731 196.511 19.7284C196.607 19.5837 196.656 19.439 196.704 19.3908C196.8 19.1978 196.945 19.1014 197.138 19.0531C197.331 19.0049 197.476 19.0049 197.62 19.1014C197.765 19.1978 197.813 19.3426 197.861 19.4873C197.91 19.632 197.861 19.8249 197.813 19.9696C197.765 20.0661 197.765 20.1143 197.765 20.1143C197.765 20.1143 197.765 20.1143 197.717 20.1626C197.669 20.2108 197.669 20.259 197.62 20.3073C197.572 20.3555 197.524 20.452 197.476 20.5484C197.427 20.6449 197.331 20.7414 197.283 20.8378C197.234 20.9343 197.186 21.079 197.09 21.2237C197.041 21.3684 196.945 21.5614 196.849 21.7543C196.752 21.9473 196.704 22.1884 196.656 22.4778C196.607 22.6226 196.607 22.719 196.607 22.8637C196.607 23.0084 196.559 23.1531 196.559 23.2979C196.559 23.4426 196.607 23.6355 196.607 23.7802C196.656 23.9249 196.704 24.1179 196.8 24.2143C196.897 24.359 196.993 24.5037 197.138 24.6484C197.283 24.7931 197.476 24.8896 197.669 25.0343C197.861 25.1308 198.103 25.2273 198.392 25.2755C198.633 25.3237 198.923 25.372 199.212 25.4202C199.598 25.4684 199.984 25.5167 200.418 25.5167C200.852 25.5167 201.334 25.5167 201.817 25.4202C202.299 25.372 202.83 25.3237 203.409 25.2273C204.229 25.0826 205.097 24.8896 206.013 24.6967C206.93 24.4555 207.894 24.2143 208.907 23.9249C209.631 23.6837 210.354 23.4908 211.03 23.2496C211.705 23.0084 212.38 22.8155 212.959 22.5743C213.586 22.3331 214.165 22.1402 214.696 21.9473C215.226 21.7543 215.709 21.5614 216.094 21.4167C216.914 21.079 217.638 20.7896 218.217 20.5484C218.844 20.3073 219.326 20.0661 219.712 19.9214C220.146 19.7284 220.484 19.5355 220.725 19.439C220.966 19.3426 221.159 19.2461 221.304 19.1496C221.4 19.1014 221.497 19.0531 221.593 19.0049C221.69 18.9567 221.786 18.9084 221.883 18.8602C222.076 18.812 222.269 18.7637 222.413 18.812C222.558 18.7155 222.654 18.812 222.751 19.0049ZM202.203 12.059C202.058 12.059 201.913 12.1073 201.817 12.1073C201.672 12.1073 201.576 12.1555 201.431 12.1555C200.949 12.2037 200.514 12.252 200.177 12.3002C199.839 12.3484 199.55 12.3484 199.357 12.3484C199.019 12.3484 198.778 12.3002 198.681 12.2037C198.537 12.1073 198.489 11.9625 198.489 11.7696C198.489 11.5767 198.489 11.432 198.585 11.3355C198.681 11.1908 198.778 11.1425 198.874 11.1425H198.923C198.923 11.1425 198.971 11.1425 199.019 11.1908H198.971C199.019 11.1908 199.164 11.239 199.357 11.239C199.55 11.239 199.887 11.2873 200.37 11.2873C200.756 11.2873 201.238 11.2873 201.865 11.239C202.444 11.239 203.216 11.1908 204.084 11.1425C204.807 11.0943 205.386 11.0461 205.869 10.9978C206.303 10.9496 206.689 10.9014 206.93 10.8531C207.171 10.8049 207.412 10.7567 207.509 10.7567C207.653 10.7084 207.75 10.7084 207.798 10.6602C207.894 10.612 207.991 10.612 208.039 10.612C208.087 10.612 208.136 10.5637 208.232 10.5637C208.28 10.5637 208.377 10.5637 208.425 10.5637C208.473 10.5637 208.521 10.612 208.57 10.6602C208.618 10.7084 208.618 10.8049 208.666 10.9496C208.666 11.0943 208.618 11.239 208.521 11.3355C208.425 11.432 208.28 11.5284 208.039 11.5767C207.846 11.6249 207.557 11.6731 207.219 11.7214C206.881 11.7696 206.496 11.7696 206.061 11.8178C205.579 11.8661 205.049 11.9143 204.373 11.9625C203.698 11.8661 202.974 11.9625 202.203 12.059Z" fill="#32333E"/>
<path d="M242.672 19.0527C242.769 19.1974 242.72 19.3904 242.527 19.6315C242.335 19.8727 242.093 20.0657 241.804 20.2586C241.756 20.3068 241.707 20.3068 241.659 20.3551C241.611 20.3551 241.563 20.4033 241.514 20.4516C241.466 20.4998 241.418 20.4998 241.322 20.548C241.225 20.5963 241.129 20.6445 241.032 20.6927C240.887 20.741 240.743 20.8374 240.55 20.9339C240.357 21.0304 240.116 21.1751 239.874 21.3198C239.537 21.5127 239.103 21.8021 238.62 22.1398C238.138 22.4774 237.559 22.9116 236.884 23.3939C236.594 23.5868 236.305 23.828 236.016 24.021C235.147 24.648 234.086 25.5163 232.88 26.481C231.674 27.4939 230.324 28.6998 228.78 30.1469C227.96 30.9186 227.14 31.7869 226.272 32.7033C225.404 33.668 224.487 34.681 223.571 35.7904C223.04 36.4174 222.558 37.0445 222.027 37.7198C221.497 38.3951 220.966 39.0704 220.436 39.7939C220.291 40.0833 220.146 40.421 220.002 40.7104C219.857 40.9998 219.712 41.2892 219.567 41.5304C218.989 42.5916 218.458 43.5563 217.976 44.328C217.493 45.0998 217.059 45.8233 216.673 46.4504C216.625 46.5469 216.529 46.6433 216.48 46.7398C216.432 46.8363 216.384 46.9328 216.287 47.0292L216.046 47.4151C215.998 47.4633 215.95 47.5598 215.902 47.6563C215.853 47.7528 215.805 47.801 215.709 47.8975L215.66 47.9457L215.612 47.9939L215.564 48.0422L215.516 48.0904C215.467 48.1386 215.419 48.1869 215.371 48.2351C215.323 48.2833 215.226 48.3316 215.178 48.3798C215.082 48.428 214.985 48.428 214.889 48.428C214.84 48.428 214.744 48.3798 214.696 48.3316C214.647 48.2833 214.599 48.2351 214.551 48.1869C214.503 48.1386 214.503 48.0422 214.454 47.9939V47.9457V47.8975V47.8492V47.7528C214.454 47.608 214.503 47.5116 214.551 47.4151C214.599 47.3186 214.599 47.2222 214.647 47.1257C214.696 47.0292 214.744 46.9328 214.744 46.8363C214.84 46.6433 214.889 46.4986 214.985 46.3057C215.082 46.161 215.13 45.968 215.226 45.8716L215.274 45.8233V45.7751C215.467 45.3892 215.709 45.0033 215.902 44.6175C216.143 44.2316 216.384 43.7975 216.673 43.3151C216.963 42.881 217.3 42.3986 217.638 41.868C217.976 41.3375 218.41 40.8069 218.844 40.228C219.037 39.9869 219.23 39.7457 219.374 39.5045C219.567 39.2633 219.712 39.0704 219.905 38.8292C220.002 38.6845 220.098 38.588 220.194 38.4433C220.339 38.2022 220.436 37.9127 220.58 37.6233C220.725 37.3339 220.822 37.0445 220.966 36.7551C221.256 36.0798 221.545 35.3563 221.834 34.5845C222.124 33.8127 222.413 32.9445 222.654 31.9798C222.896 31.0633 223.089 30.1469 223.233 29.2786C223.378 28.4104 223.426 27.5421 223.426 26.7221C223.426 26.5292 223.378 26.3363 223.33 26.1433C223.282 25.9504 223.185 25.7092 223.089 25.5163C222.992 25.3233 222.944 25.0821 222.847 24.8892C222.799 24.6963 222.751 24.5033 222.751 24.3586C222.751 24.2139 222.799 24.0692 222.896 23.9727C222.992 23.8763 223.185 23.7798 223.426 23.7798C223.523 23.6833 223.571 23.6351 223.619 23.6351C223.667 23.5868 223.667 23.5868 223.716 23.5386C223.764 23.5386 223.764 23.4904 223.812 23.4421C223.86 23.3939 223.909 23.3939 223.909 23.3457C223.957 23.2974 223.957 23.2974 224.005 23.2492C224.053 23.2492 224.053 23.201 224.102 23.201C224.102 23.201 224.15 23.1527 224.198 23.1527C224.294 23.0563 224.439 22.9598 224.536 22.9116C224.632 22.8151 224.729 22.7668 224.873 22.6704C225.404 22.2363 225.886 21.8504 226.369 21.4645C226.803 21.0786 227.237 20.741 227.623 20.3551C227.671 20.3068 227.671 20.3068 227.719 20.3068C227.767 20.3068 227.767 20.2586 227.767 20.2586C227.816 20.2104 227.864 20.1621 227.912 20.1139C227.96 20.0657 228.009 20.0174 228.057 19.9692C227.96 19.921 227.864 19.921 227.719 19.921C227.623 19.921 227.478 19.8727 227.382 19.8727C227.14 19.8245 226.851 19.7763 226.61 19.7763C226.369 19.7763 226.127 19.7763 225.934 19.7763C225.838 19.7763 225.742 19.7763 225.645 19.7763C225.549 19.7763 225.452 19.7763 225.356 19.7763C225.066 19.7763 224.825 19.7763 224.584 19.8245C224.343 19.8245 224.15 19.8727 223.957 19.8727C223.716 19.8727 223.474 19.921 223.282 19.921C223.089 19.921 222.944 19.9692 222.847 19.9692C222.799 19.9692 222.751 19.9692 222.703 19.9692C222.654 19.9692 222.606 19.9692 222.558 19.9692C222.51 19.9692 222.413 20.0174 222.317 20.0174C222.22 20.0174 222.124 20.0174 222.076 20.0174C221.786 20.0174 221.593 19.9692 221.4 19.921C221.207 19.8245 221.111 19.728 221.111 19.5833C221.063 19.4386 221.207 19.2457 221.449 19.101C221.69 18.9563 222.027 18.8115 222.413 18.7633C222.51 18.7633 222.606 18.7151 222.751 18.7151C222.896 18.7151 223.089 18.7151 223.378 18.6668C223.426 18.6668 223.474 18.6668 223.523 18.6668C223.571 18.6668 223.619 18.6668 223.667 18.6668C223.86 18.6668 224.102 18.6668 224.391 18.6186C224.68 18.5704 224.97 18.6186 225.356 18.6186C225.5 18.6186 225.597 18.6186 225.742 18.6186C225.886 18.6186 226.031 18.6186 226.176 18.6186H226.224C226.417 18.6186 226.61 18.6668 226.803 18.6668C226.996 18.6668 227.189 18.7151 227.382 18.7633H227.43H227.478C227.671 18.8115 227.912 18.8598 228.153 18.908C228.394 18.9563 228.684 19.101 228.973 19.2457L229.022 19.2939L229.07 19.3421L229.118 19.3904C229.166 19.4386 229.214 19.5351 229.263 19.6315C229.263 19.728 229.263 19.7763 229.263 19.8245C229.214 20.0174 229.166 20.1621 229.118 20.2104C229.07 20.3068 229.022 20.4033 228.973 20.4516C228.925 20.4998 228.877 20.548 228.829 20.5963C228.78 20.6927 228.684 20.7892 228.539 20.8857C228.394 20.9821 228.298 21.1268 228.153 21.2233C227.912 21.4163 227.671 21.6574 227.43 21.8504C227.189 22.0433 226.899 22.2845 226.61 22.4774C226.32 22.7186 226.031 22.9116 225.742 23.1527C225.452 23.3939 225.114 23.6351 224.777 23.8763C224.68 23.9245 224.632 24.021 224.536 24.0692C224.439 24.1174 224.343 24.2139 224.294 24.2621C224.246 24.3104 224.15 24.3586 224.15 24.3586L224.102 24.4068C224.102 24.4068 224.053 24.4068 224.053 24.4551C224.102 24.648 224.15 24.8892 224.15 25.0821C224.198 25.2751 224.198 25.5163 224.198 25.7092C224.198 25.8539 224.246 25.9986 224.246 26.1433C224.246 26.288 224.246 26.481 224.246 26.6257C224.246 27.4939 224.198 28.3621 224.053 29.2786C223.909 30.1951 223.716 31.1598 223.426 32.221C223.233 32.9927 222.992 33.668 222.751 34.3433C222.51 35.0186 222.269 35.5974 222.027 36.2245C222.413 35.7904 222.751 35.4045 223.04 35.0669C223.378 34.7292 223.667 34.3916 223.957 34.0539C224.005 34.0057 224.053 33.9574 224.102 33.9092C224.15 33.861 224.198 33.8127 224.246 33.7645C224.584 33.3786 224.922 33.041 225.259 32.6551C225.597 32.3174 225.934 31.9798 226.272 31.5939C226.61 31.2563 226.947 30.9186 227.285 30.581C227.623 30.2433 228.009 29.8574 228.394 29.4716C229.697 28.2174 230.854 27.1563 231.916 26.288C232.977 25.4198 233.893 24.648 234.665 24.021C235.003 23.7798 235.34 23.5386 235.63 23.2974C235.919 23.0563 236.209 22.8633 236.45 22.6221C236.787 22.3327 237.125 22.0916 237.414 21.8504C237.704 21.6092 237.993 21.4163 238.186 21.2715C238.572 21.0304 238.862 20.7892 239.151 20.5963C239.392 20.4033 239.633 20.2586 239.826 20.0657C240.067 19.8727 240.26 19.728 240.453 19.5833C240.646 19.4386 240.887 19.2939 241.129 19.1492C241.273 19.0527 241.466 19.0045 241.611 18.908C241.756 18.8598 241.9 18.8115 242.045 18.8115C242.19 18.8115 242.286 18.8115 242.383 18.8115C242.527 18.908 242.576 18.9563 242.672 19.0527Z" fill="#32333E"/>
</svg>
