<svg width="47" height="45" viewBox="0 0 47 45" fill="none" xmlns="http://www.w3.org/2000/svg">
<path d="M9.89474 45C8.03947 45 6.20482 44.5414 4.39079 43.6241C2.57675 42.7068 1.11316 41.4977 0 39.9967C1.07193 39.9967 2.16447 39.5693 3.27763 38.7146C4.39079 37.8598 4.94737 36.6194 4.94737 34.9933C4.94737 32.9086 5.66886 31.1366 7.11184 29.6773C8.55482 28.218 10.307 27.4883 12.3684 27.4883C14.4298 27.4883 16.182 28.218 17.625 29.6773C19.068 31.1366 19.7895 32.9086 19.7895 34.9933C19.7895 37.7452 18.8206 40.1009 16.8829 42.0605C14.9452 44.0202 12.6158 45 9.89474 45ZM9.89474 39.9967C11.2553 39.9967 12.42 39.5068 13.3888 38.5269C14.3577 37.5471 14.8421 36.3692 14.8421 34.9933C14.8421 34.2845 14.605 33.6904 14.1309 33.2109C13.6568 32.7314 13.0693 32.4917 12.3684 32.4917C11.6675 32.4917 11.08 32.7314 10.6059 33.2109C10.1318 33.6904 9.89474 34.2845 9.89474 34.9933C9.89474 35.9523 9.78136 36.8279 9.55461 37.6201C9.32785 38.4123 9.02895 39.1628 8.6579 39.8716C8.86404 39.955 9.07018 39.9967 9.27632 39.9967H9.89474ZM24.1184 29.99L17.3158 23.1104L39.4553 0.72048C39.9088 0.261841 40.4757 0.0220981 41.1559 0.00125083C41.8362 -0.0195964 42.4237 0.220147 42.9184 0.72048L46.2579 4.09773C46.7526 4.59806 47 5.18179 47 5.8489C47 6.51601 46.7526 7.09973 46.2579 7.60007L24.1184 29.99Z" fill="url(#paint0_linear_16_66)"/>
<defs>
<linearGradient id="paint0_linear_16_66" x1="23.5" y1="0" x2="23.5" y2="45" gradientUnits="userSpaceOnUse">
<stop stop-color="#F71D0A"/>
<stop offset="1" stop-color="#F00B5D"/>
</linearGradient>
</defs>
</svg>
