<svg width="47" height="46" viewBox="0 0 47 46" fill="none" xmlns="http://www.w3.org/2000/svg">
<path d="M34.3902 41.4V4.6C35.6512 4.6 36.7307 5.05042 37.6287 5.95125C38.5266 6.85208 38.9756 7.935 38.9756 9.2V36.8C38.9756 38.065 38.5266 39.1479 37.6287 40.0488C36.7307 40.9496 35.6512 41.4 34.3902 41.4ZM4.58537 46C3.32439 46 2.24492 45.5496 1.34695 44.6488C0.448984 43.7479 0 42.665 0 41.4V4.6C0 3.335 0.448984 2.25208 1.34695 1.35125C2.24492 0.450417 3.32439 0 4.58537 0H25.2195C26.4805 0 27.56 0.450417 28.4579 1.35125C29.3559 2.25208 29.8049 3.335 29.8049 4.6V41.4C29.8049 42.665 29.3559 43.7479 28.4579 44.6488C27.56 45.5496 26.4805 46 25.2195 46H4.58537ZM43.561 36.8V9.2C44.5163 9.2 45.3283 9.53542 45.997 10.2063C46.6657 10.8771 47 11.6917 47 12.65V33.35C47 34.3083 46.6657 35.1229 45.997 35.7938C45.3283 36.4646 44.5163 36.8 43.561 36.8ZM4.58537 41.4H25.2195V4.6H4.58537V41.4Z" fill="url(#paint0_linear_16_62)"/>
<defs>
<linearGradient id="paint0_linear_16_62" x1="23.5" y1="0" x2="23.5" y2="46" gradientUnits="userSpaceOnUse">
<stop stop-color="#F71D0A"/>
<stop offset="1" stop-color="#F00B5D"/>
</linearGradient>
</defs>
</svg>
