<svg width="46" height="46" viewBox="0 0 46 46" fill="none" xmlns="http://www.w3.org/2000/svg">
<path d="M17.25 33.35L33.35 23L17.25 12.65V33.35ZM23 46C19.8183 46 16.8283 45.3963 14.03 44.1888C11.2317 42.9813 8.7975 41.3425 6.7275 39.2725C4.6575 37.2025 3.01875 34.7683 1.81125 31.97C0.60375 29.1717 0 26.1817 0 23C0 19.8183 0.60375 16.8283 1.81125 14.03C3.01875 11.2317 4.6575 8.7975 6.7275 6.7275C8.7975 4.6575 11.2317 3.01875 14.03 1.81125C16.8283 0.60375 19.8183 0 23 0C26.1817 0 29.1717 0.60375 31.97 1.81125C34.7683 3.01875 37.2025 4.6575 39.2725 6.7275C41.3425 8.7975 42.9813 11.2317 44.1888 14.03C45.3963 16.8283 46 19.8183 46 23C46 26.1817 45.3963 29.1717 44.1888 31.97C42.9813 34.7683 41.3425 37.2025 39.2725 39.2725C37.2025 41.3425 34.7683 42.9813 31.97 44.1888C29.1717 45.3963 26.1817 46 23 46ZM23 41.4C28.1367 41.4 32.4875 39.6175 36.0525 36.0525C39.6175 32.4875 41.4 28.1367 41.4 23C41.4 17.8633 39.6175 13.5125 36.0525 9.9475C32.4875 6.3825 28.1367 4.6 23 4.6C17.8633 4.6 13.5125 6.3825 9.9475 9.9475C6.3825 13.5125 4.6 17.8633 4.6 23C4.6 28.1367 6.3825 32.4875 9.9475 36.0525C13.5125 39.6175 17.8633 41.4 23 41.4Z" fill="url(#paint0_linear_16_64)"/>
<defs>
<linearGradient id="paint0_linear_16_64" x1="23" y1="0" x2="23" y2="46" gradientUnits="userSpaceOnUse">
<stop stop-color="#F71D0A"/>
<stop offset="1" stop-color="#F00B5D"/>
</linearGradient>
</defs>
</svg>
