<svg width="221" height="63" viewBox="0 0 221 63" fill="none" xmlns="http://www.w3.org/2000/svg">
<path d="M69.4 41.9C67.1 39.6 65.9 36 65.9 31.2C65.9 26.1 67.1 22.5 69.4 20.2C71.7 17.9 75.2 16.7 79.8 16.7C84.4 16.7 87.9 17.9 90.2 20.2C92.5 22.5 93.7 26.2 93.7 31.2C93.7 36 92.5 39.6 90.2 41.9C87.9 44.2 84.4 45.4 79.8 45.4C75.2 45.4 71.7 44.2 69.4 41.9ZM84.9 37.5C86 36.2 86.5 34.1 86.5 31.2C86.5 28.1 86 25.9 84.9 24.6C83.8 23.3 82.1 22.7 79.7 22.7C77.3 22.7 75.6 23.3 74.5 24.6C73.4 25.9 72.9 28.1 72.9 31.2C72.9 34.1 73.4 36.2 74.5 37.5C75.6 38.8 77.3 39.5 79.7 39.5C82.1 39.5 83.8 38.8 84.9 37.5Z" fill="white"/>
<path d="M97.2 24.5H103.7L103.9 26.3C106 24.8 108.3 24 110.7 24C112 24 113.1 24.2 113.9 24.6C114.7 25 115.3 25.6 115.8 26.4C116.8 25.6 118 25.1 119.2 24.6C120.4 24.2 121.8 24 123.3 24C125.7 24 127.4 24.6 128.6 25.9C129.7 27.1 130.3 29 130.3 31.6V45H123.4V32.4C123.4 31.3 123.2 30.5 122.7 30C122.2 29.5 121.5 29.2 120.4 29.2C119.7 29.2 119.1 29.3 118.4 29.6C117.8 29.9 117.3 30.3 116.8 30.7C116.9 31.1 116.9 31.8 116.9 32.6V45H110.4V32.3C110.4 31.2 110.2 30.4 109.8 29.9C109.4 29.4 108.7 29.2 107.8 29.2C106.6 29.2 105.3 29.8 104 31.1V45H97.2V24.5Z" fill="white"/>
<path d="M132.9 34.7C132.9 31.2 133.9 28.6 135.8 26.8C137.7 25 140.6 24.1 144.5 24.1C148.4 24.1 151.3 25 153.2 26.8C155.1 28.6 156.1 31.3 156.1 34.8C156.1 41.9 152.2 45.5 144.5 45.5C136.7 45.4 132.9 41.9 132.9 34.7ZM147.9 38.7C148.6 37.9 148.9 36.6 148.9 34.7C148.9 32.8 148.5 31.5 147.8 30.7C147.1 29.9 145.9 29.5 144.4 29.5C142.8 29.5 141.7 29.9 141 30.7C140.3 31.5 140 32.9 140 34.7C140 36.6 140.3 37.9 141 38.7C141.7 39.5 142.8 39.9 144.4 39.9C146 40 147.2 39.6 147.9 38.7Z" fill="white"/>
<path d="M160.9 43.5C159.7 42.2 159.1 40.4 159.1 38.1V29.7H156.3V24.4H159.1V20.1L166.1 18.2V24.3H171.1L170.8 29.6H166.1V37.5C166.1 38.5 166.3 39.2 166.8 39.6C167.3 40 168 40.2 169.1 40.2C169.9 40.2 170.8 40.1 171.7 39.8V44.5C170.3 45.1 168.7 45.4 166.6 45.4C164 45.4 162.2 44.8 160.9 43.5Z" fill="white"/>
<path d="M175 43.4C173.7 42 173 40 173 37.4V24.5H180V37C180 38.2 180.3 39 180.8 39.5C181.3 40 182.2 40.3 183.4 40.3C184.2 40.3 185 40.1 185.7 39.8C186.5 39.5 187.1 39 187.6 38.5V24.5H194.6V45H188L187.8 43.3C185.9 44.7 183.5 45.5 180.7 45.5C178.2 45.4 176.3 44.7 175 43.4Z" fill="white"/>
<path d="M198.9 24.5H205.4L205.6 26.3C206.5 25.7 207.6 25.1 208.9 24.7C210.2 24.3 211.5 24.1 212.9 24.1C215.5 24.1 217.5 24.7 218.7 26C219.9 27.3 220.5 29.2 220.5 31.9V45H213.5V32.4C213.5 31.2 213.2 30.4 212.7 29.9C212.2 29.4 211.3 29.2 210.1 29.2C209.3 29.2 208.6 29.4 207.8 29.7C207 30 206.4 30.5 205.9 31V45H198.9V24.5Z" fill="white"/>
<path d="M50.1 34.6L45.6 29C45.6 29 49.2 16.7 30.8 11.3C30.8 11.3 28.8 5.3 31.5 0C31.5 0 22.5 1 14.8 9.1C14.8 9.1 8.8 13.3 5.2 20.1C3.6 21.8 0.8 25.2 0 29.2C0 29.2 1.3 26.8 3.3 25C2.2 29.3 0.6 37.8 3.8 44.4L6.1 38.6C6.1 38.6 4 53.5 20.4 60.1L16.7 51.1C21.7 56.2 31.5 62.1 41.4 62.1C41.4 62.1 30 49.1 34 45.6C34 45.6 46.8 46.4 49.5 39.6C49.5 39.6 50.9 39.5 51.6 38.2C52.2 36.9 52.3 35.6 50.1 34.6ZM28.6 11.6C27.7 12 23.9 13.4 21.5 11.3C21.5 11.3 21.8 4.9 28.7 2.4C27.3 6.5 28.2 10.5 28.6 11.6ZM34.9 20.6C43.2 21.7 43.2 29.2 43.2 29.2C30.7 33.4 29.1 19.8 34.9 20.6Z" fill="url(#paint0_linear_3_11)"/>
<defs>
<linearGradient id="paint0_linear_3_11" x1="10.9503" y1="9.8199" x2="41.2005" y2="62.2149" gradientUnits="userSpaceOnUse">
<stop stop-color="#F71D0A"/>
<stop offset="1" stop-color="#F00B5D"/>
</linearGradient>
</defs>
</svg>
